<?xml version="1.0" encoding="utf-8"?>
<!-- Generator: Adobe Illustrator 16.0.0, SVG Export Plug-In . SVG Version: 6.00 Build 0)  -->
<!DOCTYPE svg PUBLIC "-//W3C//DTD SVG 1.1//EN" "http://www.w3.org/Graphics/SVG/1.1/DTD/svg11.dtd">
<svg version="1.1" id="Livello_1" xmlns="http://www.w3.org/2000/svg" xmlns:xlink="http://www.w3.org/1999/xlink" x="0px" y="0px"
	 width="679.222px" height="386.606px" viewBox="0 0 679.222 386.606" enable-background="new 0 0 679.222 386.606"
	 xml:space="preserve">
<path fill="none" stroke="#474647" stroke-miterlimit="10" d="M28.908,28.87c-37.877,37.874-37.877,99.252,0,137.116
	c0,0.025,0.012,0.025,0.012,0.025l27.29,27.276l-27.29,27.305h-0.012c-37.877,37.837-37.877,99.262,0,137.126
	c37.85,37.851,99.24,37.851,137.116,0c0.024-0.038,0.024-0.038,0.024-0.038l27.253-27.275l137.116-137.117L193.301,56.17
	l-27.253-27.274c0,0,0,0-0.024-0.026C128.148-8.957,66.758-8.957,28.908,28.87z"/>
<path fill="none" stroke="#474647" stroke-miterlimit="10" d="M376.967,28.87c-37.851,37.874-37.851,99.252,0,137.116
	c0,0.025,0.023,0.025,0.023,0.025l27.286,27.276l-27.286,27.305h-0.023c-37.851,37.837-37.851,99.262,0,137.126
	c37.86,37.851,99.252,37.851,137.117,0c0.038-0.038,0.038-0.038,0.038-0.038l27.276-27.275l137.116-137.117L541.398,56.17
	l-27.276-27.274c0,0,0,0-0.038-0.026C476.219-8.957,414.827-8.957,376.967,28.87z"/>
</svg>
