<?xml version="1.0" encoding="utf-8"?>
<!-- Generator: Adobe Illustrator 16.0.0, SVG Export Plug-In . SVG Version: 6.00 Build 0)  -->
<!DOCTYPE svg PUBLIC "-//W3C//DTD SVG 1.1//EN" "http://www.w3.org/Graphics/SVG/1.1/DTD/svg11.dtd">
<svg version="1.1" id="Livello_1" xmlns="http://www.w3.org/2000/svg" xmlns:xlink="http://www.w3.org/1999/xlink" x="0px" y="0px"
	 width="683.751px" height="390.402px" viewBox="0 0 683.751 390.402" enable-background="new 0 0 683.751 390.402"
	 xml:space="preserve">
<g>
	<g>
		<g>
			<path fill="#4A494A" d="M99.377,390.402c-26.543,0-51.497-10.333-70.26-29.098C10.34,342.533,0,317.571,0,291.017
				s10.342-51.508,29.118-70.263l25.567-25.57l-24.84-24.825h-1.432l-0.007-1.458C10.08,150.214,0,125.559,0,99.354
				c0-26.543,10.34-51.5,29.118-70.274C47.88,10.328,72.834,0,99.377,0c26.544,0,51.503,10.326,70.28,29.077l166.082,166.107
				l-166.082,166.12C150.88,380.069,125.922,390.402,99.377,390.402z M31.866,224.927C14.46,242.675,4.89,266.106,4.89,291.017
				c0,25.25,9.832,48.981,27.685,66.829c17.839,17.839,41.566,27.666,66.803,27.666c25.152,0,48.808-9.76,66.637-27.479l0.21-0.225
				l162.601-162.624L166.224,32.562C148.35,14.709,124.616,4.89,99.377,4.89c-25.24,0-48.964,9.82-66.803,27.646
				C14.721,50.387,4.89,74.116,4.89,99.354c0,25.236,9.832,48.962,27.685,66.809l29.024,29.022L31.866,224.927z"/>
		</g>
	</g>
	<g>
		<g>
			<path fill="#4A494A" d="M447.359,390.402c-26.544,0-51.498-10.333-70.268-29.098c-18.765-18.771-29.098-43.733-29.098-70.287
				s10.333-51.508,29.098-70.263l25.575-25.57l-24.835-24.825h-1.432l-0.014-1.454c-38.021-38.799-37.784-101.312,0.706-139.826
				C395.862,10.326,420.815,0,447.359,0c26.543,0,51.503,10.326,70.272,29.08l166.119,166.105L517.67,361.266
				C498.862,380.069,473.902,390.402,447.359,390.402z M379.842,224.927c-17.396,17.748-26.959,41.179-26.959,66.09
				c0,25.25,9.827,48.981,27.666,66.829c17.844,17.839,41.57,27.666,66.811,27.666s48.967-9.827,66.815-27.666l162.662-162.662
				L514.213,32.562C496.326,14.709,472.6,4.89,447.359,4.89s-48.967,9.82-66.811,27.646c-36.822,36.846-36.822,96.79,0,133.626
				l29.031,29.022L379.842,224.927z"/>
		</g>
	</g>
</g>
</svg>
